<mxfile host="app.diagrams.net" modified="2022-05-26T14:21:11.367Z" agent="5.0 (Macintosh; Intel Mac OS X 10_15_7) AppleWebKit/605.1.15 (KHTML, like Gecko) Version/15.5 Safari/605.1.15" etag="BZpK8IK9wW3H_pUn2Eej" version="18.0.6" type="github">
  <diagram id="nC2NtX7fne_bT89XwICZ" name="Page-1">
    <mxGraphModel dx="1261" dy="759" grid="1" gridSize="10" guides="1" tooltips="1" connect="1" arrows="1" fold="1" page="1" pageScale="1" pageWidth="827" pageHeight="1169" math="0" shadow="0">
      <root>
        <mxCell id="0" />
        <mxCell id="1" parent="0" />
        <mxCell id="xWqedgY5TfmdB2PBDEhz-58" value="" style="edgeStyle=orthogonalEdgeStyle;rounded=0;orthogonalLoop=1;jettySize=auto;html=1;fontSize=18;" edge="1" parent="1" source="xWqedgY5TfmdB2PBDEhz-56" target="xWqedgY5TfmdB2PBDEhz-57">
          <mxGeometry relative="1" as="geometry" />
        </mxCell>
        <mxCell id="xWqedgY5TfmdB2PBDEhz-56" value="&lt;font style=&quot;font-size: 18px;&quot;&gt;Start&lt;/font&gt;" style="ellipse;whiteSpace=wrap;html=1;" vertex="1" parent="1">
          <mxGeometry x="264" y="50" width="120" height="80" as="geometry" />
        </mxCell>
        <mxCell id="xWqedgY5TfmdB2PBDEhz-60" value="" style="edgeStyle=orthogonalEdgeStyle;rounded=0;orthogonalLoop=1;jettySize=auto;html=1;fontSize=18;" edge="1" parent="1" source="xWqedgY5TfmdB2PBDEhz-57" target="xWqedgY5TfmdB2PBDEhz-59">
          <mxGeometry relative="1" as="geometry" />
        </mxCell>
        <mxCell id="xWqedgY5TfmdB2PBDEhz-57" value="&lt;font style=&quot;font-size: 18px;&quot;&gt;list[]&lt;/font&gt;" style="shape=parallelogram;perimeter=parallelogramPerimeter;whiteSpace=wrap;html=1;fixedSize=1;" vertex="1" parent="1">
          <mxGeometry x="264" y="160" width="120" height="60" as="geometry" />
        </mxCell>
        <mxCell id="xWqedgY5TfmdB2PBDEhz-62" value="" style="edgeStyle=orthogonalEdgeStyle;rounded=0;orthogonalLoop=1;jettySize=auto;html=1;fontSize=18;" edge="1" parent="1" source="xWqedgY5TfmdB2PBDEhz-59" target="xWqedgY5TfmdB2PBDEhz-61">
          <mxGeometry relative="1" as="geometry" />
        </mxCell>
        <mxCell id="xWqedgY5TfmdB2PBDEhz-59" value="&lt;font style=&quot;font-size: 18px;&quot;&gt;min_ind = 0&lt;br&gt;&lt;/font&gt;&lt;font style=&quot;font-size: 18px;&quot;&gt;max_ind = 0&lt;br&gt;&lt;/font&gt;&lt;font style=&quot;font-size: 18px;&quot;&gt;ind = 0&lt;/font&gt;" style="whiteSpace=wrap;html=1;" vertex="1" parent="1">
          <mxGeometry x="264" y="250" width="120" height="60" as="geometry" />
        </mxCell>
        <mxCell id="xWqedgY5TfmdB2PBDEhz-64" value="" style="edgeStyle=orthogonalEdgeStyle;rounded=0;orthogonalLoop=1;jettySize=auto;html=1;fontSize=18;" edge="1" parent="1" source="xWqedgY5TfmdB2PBDEhz-61" target="xWqedgY5TfmdB2PBDEhz-63">
          <mxGeometry relative="1" as="geometry" />
        </mxCell>
        <mxCell id="xWqedgY5TfmdB2PBDEhz-81" value="" style="edgeStyle=orthogonalEdgeStyle;rounded=0;orthogonalLoop=1;jettySize=auto;html=1;fontSize=18;" edge="1" parent="1" source="xWqedgY5TfmdB2PBDEhz-61" target="xWqedgY5TfmdB2PBDEhz-80">
          <mxGeometry relative="1" as="geometry" />
        </mxCell>
        <mxCell id="xWqedgY5TfmdB2PBDEhz-61" value="&lt;font style=&quot;font-size: 18px;&quot;&gt;ind &amp;lt; list.length&lt;/font&gt;" style="rhombus;whiteSpace=wrap;html=1;" vertex="1" parent="1">
          <mxGeometry x="220" y="340" width="210" height="110" as="geometry" />
        </mxCell>
        <mxCell id="xWqedgY5TfmdB2PBDEhz-66" value="" style="edgeStyle=orthogonalEdgeStyle;rounded=0;orthogonalLoop=1;jettySize=auto;html=1;fontSize=18;" edge="1" parent="1" source="xWqedgY5TfmdB2PBDEhz-63" target="xWqedgY5TfmdB2PBDEhz-65">
          <mxGeometry relative="1" as="geometry" />
        </mxCell>
        <mxCell id="xWqedgY5TfmdB2PBDEhz-70" value="" style="edgeStyle=orthogonalEdgeStyle;rounded=0;orthogonalLoop=1;jettySize=auto;html=1;fontSize=18;" edge="1" parent="1" source="xWqedgY5TfmdB2PBDEhz-63" target="xWqedgY5TfmdB2PBDEhz-69">
          <mxGeometry relative="1" as="geometry" />
        </mxCell>
        <mxCell id="xWqedgY5TfmdB2PBDEhz-63" value="&lt;font style=&quot;font-size: 18px;&quot;&gt;list[ind] &amp;gt; list[max_ind]&lt;/font&gt;" style="rhombus;whiteSpace=wrap;html=1;" vertex="1" parent="1">
          <mxGeometry x="242.5" y="490" width="163" height="115" as="geometry" />
        </mxCell>
        <mxCell id="xWqedgY5TfmdB2PBDEhz-68" value="" style="edgeStyle=orthogonalEdgeStyle;rounded=0;orthogonalLoop=1;jettySize=auto;html=1;fontSize=18;" edge="1" parent="1" source="xWqedgY5TfmdB2PBDEhz-65" target="xWqedgY5TfmdB2PBDEhz-67">
          <mxGeometry relative="1" as="geometry" />
        </mxCell>
        <mxCell id="xWqedgY5TfmdB2PBDEhz-90" style="edgeStyle=orthogonalEdgeStyle;rounded=0;orthogonalLoop=1;jettySize=auto;html=1;entryX=1;entryY=0.5;entryDx=0;entryDy=0;fontSize=18;" edge="1" parent="1" source="xWqedgY5TfmdB2PBDEhz-65" target="xWqedgY5TfmdB2PBDEhz-74">
          <mxGeometry relative="1" as="geometry">
            <Array as="points">
              <mxPoint x="680" y="548" />
              <mxPoint x="680" y="790" />
            </Array>
          </mxGeometry>
        </mxCell>
        <mxCell id="xWqedgY5TfmdB2PBDEhz-65" value="&lt;font style=&quot;font-size: 18px;&quot;&gt;list[ind]&amp;lt;list[min_ind]&lt;/font&gt;" style="rhombus;whiteSpace=wrap;html=1;" vertex="1" parent="1">
          <mxGeometry x="470" y="488.75" width="160" height="117.5" as="geometry" />
        </mxCell>
        <mxCell id="xWqedgY5TfmdB2PBDEhz-89" value="" style="edgeStyle=orthogonalEdgeStyle;rounded=0;orthogonalLoop=1;jettySize=auto;html=1;fontSize=18;entryX=0.5;entryY=0;entryDx=0;entryDy=0;" edge="1" parent="1" source="xWqedgY5TfmdB2PBDEhz-67" target="xWqedgY5TfmdB2PBDEhz-74">
          <mxGeometry relative="1" as="geometry" />
        </mxCell>
        <mxCell id="xWqedgY5TfmdB2PBDEhz-67" value="&lt;font style=&quot;font-size: 18px;&quot;&gt;min_ind = ind&lt;/font&gt;" style="whiteSpace=wrap;html=1;" vertex="1" parent="1">
          <mxGeometry x="490" y="640" width="120" height="60" as="geometry" />
        </mxCell>
        <mxCell id="xWqedgY5TfmdB2PBDEhz-88" value="" style="edgeStyle=orthogonalEdgeStyle;rounded=0;orthogonalLoop=1;jettySize=auto;html=1;fontSize=18;entryX=0.5;entryY=0;entryDx=0;entryDy=0;" edge="1" parent="1" source="xWqedgY5TfmdB2PBDEhz-69" target="xWqedgY5TfmdB2PBDEhz-74">
          <mxGeometry relative="1" as="geometry" />
        </mxCell>
        <mxCell id="xWqedgY5TfmdB2PBDEhz-69" value="&lt;font style=&quot;font-size: 18px;&quot;&gt;max_ind = ind&lt;/font&gt;" style="whiteSpace=wrap;html=1;" vertex="1" parent="1">
          <mxGeometry x="265" y="640" width="120" height="60" as="geometry" />
        </mxCell>
        <mxCell id="xWqedgY5TfmdB2PBDEhz-71" value="No" style="text;html=1;align=center;verticalAlign=middle;resizable=0;points=[];autosize=1;strokeColor=none;fillColor=none;fontSize=18;" vertex="1" parent="1">
          <mxGeometry x="413.5" y="510" width="40" height="30" as="geometry" />
        </mxCell>
        <mxCell id="xWqedgY5TfmdB2PBDEhz-79" style="edgeStyle=orthogonalEdgeStyle;rounded=0;orthogonalLoop=1;jettySize=auto;html=1;entryX=0;entryY=0.5;entryDx=0;entryDy=0;fontSize=18;" edge="1" parent="1" source="xWqedgY5TfmdB2PBDEhz-74" target="xWqedgY5TfmdB2PBDEhz-61">
          <mxGeometry relative="1" as="geometry">
            <Array as="points">
              <mxPoint x="170" y="790" />
              <mxPoint x="170" y="395" />
            </Array>
          </mxGeometry>
        </mxCell>
        <mxCell id="xWqedgY5TfmdB2PBDEhz-74" value="&lt;font style=&quot;font-size: 18px;&quot;&gt;ind = ind + 1&lt;/font&gt;" style="whiteSpace=wrap;html=1;" vertex="1" parent="1">
          <mxGeometry x="384" y="760" width="120" height="60" as="geometry" />
        </mxCell>
        <mxCell id="xWqedgY5TfmdB2PBDEhz-77" value="No" style="text;html=1;align=center;verticalAlign=middle;resizable=0;points=[];autosize=1;strokeColor=none;fillColor=none;fontSize=18;" vertex="1" parent="1">
          <mxGeometry x="630" y="510" width="40" height="30" as="geometry" />
        </mxCell>
        <mxCell id="xWqedgY5TfmdB2PBDEhz-78" value="Yes" style="text;html=1;align=center;verticalAlign=middle;resizable=0;points=[];autosize=1;strokeColor=none;fillColor=none;fontSize=18;" vertex="1" parent="1">
          <mxGeometry x="280" y="605" width="40" height="30" as="geometry" />
        </mxCell>
        <mxCell id="xWqedgY5TfmdB2PBDEhz-83" value="" style="edgeStyle=orthogonalEdgeStyle;rounded=0;orthogonalLoop=1;jettySize=auto;html=1;fontSize=18;" edge="1" parent="1" source="xWqedgY5TfmdB2PBDEhz-80" target="xWqedgY5TfmdB2PBDEhz-82">
          <mxGeometry relative="1" as="geometry" />
        </mxCell>
        <mxCell id="xWqedgY5TfmdB2PBDEhz-80" value="&lt;font style=&quot;font-size: 18px;&quot;&gt;min_ind&lt;br&gt;max_ind&lt;/font&gt;" style="shape=document;whiteSpace=wrap;html=1;boundedLbl=1;" vertex="1" parent="1">
          <mxGeometry x="470" y="355" width="120" height="80" as="geometry" />
        </mxCell>
        <mxCell id="xWqedgY5TfmdB2PBDEhz-82" value="&lt;font style=&quot;font-size: 18px;&quot;&gt;end&lt;/font&gt;" style="ellipse;whiteSpace=wrap;html=1;" vertex="1" parent="1">
          <mxGeometry x="640" y="365" width="120" height="60" as="geometry" />
        </mxCell>
        <mxCell id="xWqedgY5TfmdB2PBDEhz-84" value="Yes" style="text;html=1;align=center;verticalAlign=middle;resizable=0;points=[];autosize=1;strokeColor=none;fillColor=none;fontSize=18;" vertex="1" parent="1">
          <mxGeometry x="270" y="450" width="40" height="30" as="geometry" />
        </mxCell>
        <mxCell id="xWqedgY5TfmdB2PBDEhz-85" value="Yes" style="text;html=1;align=center;verticalAlign=middle;resizable=0;points=[];autosize=1;strokeColor=none;fillColor=none;fontSize=18;" vertex="1" parent="1">
          <mxGeometry x="504" y="606.25" width="40" height="30" as="geometry" />
        </mxCell>
        <mxCell id="xWqedgY5TfmdB2PBDEhz-91" value="No" style="text;html=1;align=center;verticalAlign=middle;resizable=0;points=[];autosize=1;strokeColor=none;fillColor=none;fontSize=18;" vertex="1" parent="1">
          <mxGeometry x="424" y="365" width="40" height="30" as="geometry" />
        </mxCell>
      </root>
    </mxGraphModel>
  </diagram>
</mxfile>
